<svg id="Layer_1" data-name="Layer 1" xmlns="http://www.w3.org/2000/svg" viewBox="0 0 357.6 120.25"><defs><style>.cls-1{fill:red;}</style></defs><title>ONQ_logo_revised</title><path d="M130.68,190.47c35.85,0,59.71,24.46,59.71,55.66,0,31.95-23.86,56.85-59.71,56.85-36,0-59.7-24.9-59.7-56.85C71,214.93,94.68,190.47,130.68,190.47Zm0,86.41c19,0,29.25-13.35,29.25-30.75,0-16.8-10.2-29.55-29.25-29.55s-29.25,12.75-29.25,29.55C101.43,263.53,111.63,276.88,130.68,276.88Z" transform="translate(-70.98 -190.47)"/><path d="M200.88,295.33V199c0-4.65,2.4-7.05,7.05-7.05H213a10.05,10.05,0,0,1,8.55,4.05l47.55,57.76c1.65,2.25,3.75,1.65,3.75-1.35V198.12c0-3.9,2.25-6.15,6.15-6.15h13.5c3.75,0,6.15,2.25,6.15,6.15v96.31c0,4.65-2.4,7.05-7.05,7.05H282a10.05,10.05,0,0,1-8.55-4.05l-43.05-50.7c-1.65-2.1-3.75-1.35-3.75,1.35v47.25c0,3.9-2.25,6.15-6.15,6.15H207C203.13,301.48,200.88,299.23,200.88,295.33Z" transform="translate(-70.98 -190.47)"/><path class="cls-1" d="M373.41,276.58a36.66,36.66,0,0,1-4.53.3c-19.05,0-29.25-13.35-29.25-30.75,0-16.8,10.2-29.55,29.25-29.55s29.25,12.75,29.25,29.55a38.67,38.67,0,0,1-1.32,10.16l26.05,15.25a58.08,58.08,0,0,0,5.72-25.41c0-31.2-23.85-55.66-59.7-55.66s-59.7,24.46-59.7,55.66c0,31.95,23.7,56.85,59.7,56.85,1.54,0,3-.11,4.51-.2Z" transform="translate(-70.98 -190.47)"/><polygon points="356.45 94.49 311.45 120.25 311.48 68.16 356.45 94.49"/></svg>