<?xml version="1.0" encoding="utf-8"?>
<!-- Generator: Adobe Illustrator 22.1.0, SVG Export Plug-In . SVG Version: 6.00 Build 0)  -->
<svg version="1.1" id="Layer_1" xmlns="http://www.w3.org/2000/svg" xmlns:xlink="http://www.w3.org/1999/xlink" x="0px" y="0px"
	 viewBox="0 100 500 300" style="enable-background:new 0 100 500 300;" xml:space="preserve">
<style type="text/css">
	.st0{fill:#FF0000;}
</style>
<g>
	<path d="M130.7,190.5c35.9,0,59.7,24.5,59.7,55.7c0,32-23.9,56.9-59.7,56.9c-36,0-59.7-24.9-59.7-56.9
		C71,214.9,94.7,190.5,130.7,190.5z M130.7,276.9c19.1,0,29.3-13.4,29.3-30.8c0-16.8-10.2-29.6-29.3-29.6
		c-19.1,0-29.3,12.8-29.3,29.6C101.4,263.5,111.6,276.9,130.7,276.9z"/>
	<path d="M200.9,295.3V199c0-4.6,2.4-7,7.1-7h5.1c3.6,0,6.3,1.2,8.6,4l47.6,57.8c1.7,2.2,3.8,1.7,3.8-1.3v-54.3
		c0-3.9,2.2-6.1,6.2-6.1h13.5c3.8,0,6.1,2.2,6.1,6.1v96.3c0,4.7-2.4,7.1-7,7.1H282c-3.6,0-6.3-1.2-8.6-4l-43.1-50.7
		c-1.6-2.1-3.8-1.4-3.8,1.4v47.3c0,3.9-2.2,6.1-6.1,6.1H207C203.1,301.5,200.9,299.2,200.9,295.3z"/>
	<path class="st0" d="M373.4,276.6c-1.5,0.2-2.9,0.3-4.5,0.3c-19.1,0-29.2-13.4-29.2-30.8c0-16.8,10.2-29.6,29.2-29.6
		s29.3,12.8,29.3,29.6c0,3.6-0.5,7-1.3,10.2l26,15.2c3.7-7.6,5.7-16.2,5.7-25.4c0-31.2-23.9-55.7-59.7-55.7
		c-36,0-59.7,24.5-59.7,55.7c0,32,23.7,56.9,59.7,56.9c1.5,0,3-0.1,4.5-0.2L373.4,276.6z"/>
	<polygon points="427.4,285 382.4,310.7 382.5,258.6 	"/>
</g>
</svg>
